<?xml version="1.0" encoding="UTF-8" standalone="no"?>
<svg width="17px" height="17px" viewBox="0 0 17 17" version="1.1" xmlns="http://www.w3.org/2000/svg" xmlns:xlink="http://www.w3.org/1999/xlink">
    <!-- Generator: Sketch 41.2 (35397) - http://www.bohemiancoding.com/sketch -->
    <title>calculator</title>
    <desc>Created with Sketch.</desc>
    <defs></defs>
    <g id="Page-1" stroke="none" stroke-width="1" fill="none" fill-rule="evenodd">
        <g id="home-3" transform="translate(-81.000000, -390.000000)" fill="#000000">
            <g id="calculator" transform="translate(81.000000, 390.000000)">
                <g id="Capa_1">
                    <g id="Group">
                        <path d="M0,8.20689655 L8.20689655,8.20689655 L8.20689655,0 L0,0 L0,8.20689655 L0,8.20689655 Z M2.34482759,3.51724138 L3.51724138,3.51724138 L3.51724138,2.34482759 C3.51724138,2.02124138 3.77986207,1.75862069 4.10344828,1.75862069 C4.42703448,1.75862069 4.68965517,2.02124138 4.68965517,2.34482759 L4.68965517,3.51724138 L5.86206897,3.51724138 C6.18565517,3.51724138 6.44827586,3.77986207 6.44827586,4.10344828 C6.44827586,4.42703448 6.18565517,4.68965517 5.86206897,4.68965517 L4.68965517,4.68965517 L4.68965517,5.86206897 C4.68965517,6.18565517 4.42703448,6.44827586 4.10344828,6.44827586 C3.77986207,6.44827586 3.51724138,6.18565517 3.51724138,5.86206897 L3.51724138,4.68965517 L2.34482759,4.68965517 C2.02124138,4.68965517 1.75862069,4.42703448 1.75862069,4.10344828 C1.75862069,3.77986207 2.02124138,3.51724138 2.34482759,3.51724138 L2.34482759,3.51724138 Z" id="Shape"></path>
                        <path d="M8.79310345,0 L8.79310345,8.20689655 L17,8.20689655 L17,0 L8.79310345,0 L8.79310345,0 Z M14.6551724,4.68965517 L11.137931,4.68965517 C10.8143448,4.68965517 10.5517241,4.42703448 10.5517241,4.10344828 C10.5517241,3.77986207 10.8143448,3.51724138 11.137931,3.51724138 L14.6551724,3.51724138 C14.9787586,3.51724138 15.2413793,3.77986207 15.2413793,4.10344828 C15.2413793,4.42703448 14.9787586,4.68965517 14.6551724,4.68965517 L14.6551724,4.68965517 Z" id="Shape"></path>
                        <path d="M8.79310345,17 L17,17 L17,8.79310345 L8.79310345,8.79310345 L8.79310345,17 L8.79310345,17 Z M11.137931,11.4310345 L14.6551724,11.4310345 C14.9787586,11.4310345 15.2413793,11.6936552 15.2413793,12.0172414 C15.2413793,12.3408276 14.9787586,12.6034483 14.6551724,12.6034483 L11.137931,12.6034483 C10.8143448,12.6034483 10.5517241,12.3408276 10.5517241,12.0172414 C10.5517241,11.6936552 10.8143448,11.4310345 11.137931,11.4310345 L11.137931,11.4310345 Z M11.137931,13.1896552 L14.6551724,13.1896552 C14.9787586,13.1896552 15.2413793,13.4522759 15.2413793,13.7758621 C15.2413793,14.0994483 14.9787586,14.362069 14.6551724,14.362069 L11.137931,14.362069 C10.8143448,14.362069 10.5517241,14.0994483 10.5517241,13.7758621 C10.5517241,13.4522759 10.8143448,13.1896552 11.137931,13.1896552 L11.137931,13.1896552 Z" id="Shape"></path>
                        <path d="M0,17 L8.20689655,17 L8.20689655,8.79310345 L0,8.79310345 L0,17 L0,17 Z M2.22348276,11.8454828 C1.99456897,11.616569 1.99456897,11.2455 2.22348276,11.0165862 C2.45210345,10.7876724 2.82375862,10.7876724 3.05237931,11.0165862 L4.10344828,12.0676552 L5.15451724,11.0165862 C5.38313793,10.7876724 5.7547931,10.7876724 5.98341379,11.0165862 C6.21232759,11.2455 6.21232759,11.616569 5.98341379,11.8454828 L4.93234483,12.8965517 L5.98341379,13.9476207 C6.21232759,14.1765345 6.21232759,14.5476034 5.98341379,14.7765172 C5.86910345,14.8911207 5.71903448,14.9482759 5.56896552,14.9482759 C5.41889655,14.9482759 5.26882759,14.8911207 5.15451724,14.7765172 L4.10344828,13.7254483 L3.05237931,14.7765172 C2.93806897,14.8911207 2.788,14.9482759 2.63793103,14.9482759 C2.48786207,14.9482759 2.3377931,14.8911207 2.22348276,14.7765172 C1.99456897,14.5476034 1.99456897,14.1765345 2.22348276,13.9476207 L3.27455172,12.8965517 L2.22348276,11.8454828 L2.22348276,11.8454828 Z" id="Shape"></path>
                    </g>
                </g>
            </g>
        </g>
    </g>
</svg>