<?xml version="1.0" encoding="UTF-8" standalone="no"?>
<svg width="17px" height="17px" viewBox="0 0 17 17" version="1.1" xmlns="http://www.w3.org/2000/svg" xmlns:xlink="http://www.w3.org/1999/xlink">
    <!-- Generator: Sketch 41.2 (35397) - http://www.bohemiancoding.com/sketch -->
    <title>dollar-coin-money</title>
    <desc>Created with Sketch.</desc>
    <defs></defs>
    <g id="Page-1" stroke="none" stroke-width="1" fill="none" fill-rule="evenodd">
        <g id="home-3" transform="translate(-80.000000, -332.000000)" fill="#000000">
            <g id="dollar-coin-money" transform="translate(80.000000, 332.000000)">
                <g id="Capa_1">
                    <path d="M8.5,0 C3.8059082,0 0,3.8059082 0,8.5 C0,13.1940918 3.8059082,17 8.5,17 C13.1951211,17 17,13.1940918 17,8.5 C17,3.8059082 13.1951211,0 8.5,0 L8.5,0 Z M10.8179766,11.7819297 C10.3998164,12.2509238 9.79598438,12.5269414 9.00634766,12.6099492 L9.00634766,13.8125 L7.99986133,13.8125 L7.99986133,12.6161582 C6.6831582,12.4812871 5.86861914,11.7155234 5.55425195,10.3209922 L7.11064844,9.9152832 C7.25488281,10.7920449 7.73217773,11.2299277 8.5425332,11.2299277 C8.92124805,11.2299277 9.20141602,11.1365605 9.37988281,10.9487305 C9.55834961,10.7609004 9.64756641,10.5347207 9.64756641,10.2690957 C9.64756641,9.99414062 9.55831641,9.78555859 9.37988281,9.64444531 C9.20141602,9.50233594 8.80400781,9.32277344 8.1887207,9.10489453 C7.63568945,8.91298047 7.20298633,8.72408789 6.89170703,8.53529492 C6.58042773,8.34852734 6.32725391,8.08602344 6.13321484,7.7487793 C5.93917578,7.41050586 5.8416582,7.01621875 5.8416582,6.56797656 C5.8416582,5.97965039 6.01597461,5.44942969 6.36254883,4.97837695 C6.70912305,4.50835352 7.25488281,4.22091406 7.99989453,4.116125 L7.99989453,3.1875 L9.00638086,3.1875 L9.00638086,4.1161582 C10.1311367,4.2510625 10.8595469,4.88710156 11.1905156,6.02533789 L9.80428516,6.59394141 C9.53348047,5.81366797 9.11631641,5.42353125 8.54983789,5.42353125 C8.26551953,5.42353125 8.03724805,5.51068945 7.86605273,5.68500586 C7.69379492,5.85932227 7.60769922,6.07099219 7.60769922,6.31898633 C7.60769922,6.57216016 7.69070703,6.76619922 7.85672266,6.90213281 C8.02170898,7.03703711 8.37761328,7.20408203 8.92131445,7.40433008 C9.5189707,7.62224219 9.98796484,7.82869922 10.3272676,8.02273828 C10.6675996,8.21677734 10.9384043,8.48552344 11.1417734,8.82688477 C11.3441133,9.16930859 11.445748,9.56880859 11.445748,10.0263809 C11.445748,10.7287598 11.2361367,11.3139648 10.8179766,11.7819297 L10.8179766,11.7819297 Z" id="Shape"></path>
                </g>
            </g>
        </g>
    </g>
</svg>