<?xml version="1.0" encoding="UTF-8" standalone="no"?>
<svg width="19px" height="19px" viewBox="0 0 19 19" version="1.1" xmlns="http://www.w3.org/2000/svg" xmlns:xlink="http://www.w3.org/1999/xlink">
    <!-- Generator: Sketch 41.2 (35397) - http://www.bohemiancoding.com/sketch -->
    <title>steering-wheel</title>
    <desc>Created with Sketch.</desc>
    <defs></defs>
    <g id="Page-1" stroke="none" stroke-width="1" fill="none" fill-rule="evenodd">
        <g id="home-3" transform="translate(-80.000000, -446.000000)" fill="#000000">
            <g id="steering-wheel" transform="translate(80.000000, 446.000000)">
                <g id="Capa_1">
                    <path d="M9.49926923,0 C4.25307692,0 0,4.25307692 0,9.49926923 C0,14.7455529 4.25307692,18.9985841 9.49926923,18.9985841 C14.7455072,18.9985841 18.9985385,14.7455529 18.9985385,9.4993149 C18.9985841,4.25307692 14.7455529,0 9.49926923,0 L9.49926923,0 Z M3.67175,13.8230938 C2.8934351,12.7176683 2.42049038,11.2462644 2.37678125,9.93604087 L6.44205048,9.93604087 C6.29397837,11.2462644 4.91606731,13.1387284 3.67175,13.8230938 L3.67175,13.8230938 Z M9.49926923,16.6327188 C8.1265649,16.6327188 6.84776442,16.2422596 5.76202404,15.5687644 C6.30923317,14.8048822 6.97048798,13.2841514 9.68182452,13.2841514 C12.3023173,13.2841514 12.9399591,14.3380577 13.601625,15.3264231 C12.4420769,16.1479447 11.0291803,16.6327188 9.49926923,16.6327188 L9.49926923,16.6327188 Z M8.35282933,10.1544038 C8.35282933,9.4608125 8.91492788,8.89875962 9.60847356,8.89875962 C10.3020649,8.89875962 10.8641178,9.46085817 10.8641178,10.1544038 C10.8641178,10.8479495 10.3020192,11.4100481 9.60847356,11.4100481 C8.91492788,11.4100481 8.35282933,10.8479952 8.35282933,10.1544038 L8.35282933,10.1544038 Z M15.4137043,13.6885865 C13.4640577,12.9050649 13.2120793,11.2462644 13.0749231,9.93604087 L16.6217572,9.93604087 C16.579875,11.2462644 16.137851,12.6089207 15.4137043,13.6885865 L15.4137043,13.6885865 Z M2.6462524,7.75227404 C3.50056731,4.69500962 6.24204808,2.58422837 9.49926923,2.58422837 C12.7565361,2.58422837 15.4980168,4.69505529 16.3522861,7.75227404 L2.6462524,7.75227404 L2.6462524,7.75227404 Z" id="Shape"></path>
                </g>
            </g>
        </g>
    </g>
</svg>